<svg xmlns="http://www.w3.org/2000/svg" xmlns:xlink="http://www.w3.org/1999/xlink" id="a" viewBox="0 0 655.4 240"><defs><style>.c{fill:#fff;}.d{fill:#f6a11f;}.e{fill:#1e997d;}.f{clip-path:url(#b);}.g{fill:#e84527;}.h{fill:#e84528;}.i{fill:none;}.j{fill:#fbc37d;}.k{fill:#85b8a3;}.l{fill:#1d5c54;}.m{fill:#50ae33;}.n{fill:#c6c6c6;}</style><clipPath id="b"><rect class="i" y="0" width="655.3" height="240"></rect></clipPath></defs><g class="f"><path class="e" d="M87.9,41.5C86.6,18.4,67.4,0,44,0S0,19.7,0,44s18.4,42.6,41.5,43.9c.5,0,.9,0,1.4,0h31.7c7.4,0,13.4-6,13.4-13.4v-31.7c0-.5,0-.9,0-1.4"></path><path class="e" d="M88,41.5C89.3,18.4,108.4,0,131.9,0s44,19.7,44,44-18.4,42.6-41.5,43.9c-.5,0-.9,0-1.4,0h-31.6c-7.4,0-13.4-6-13.4-13.4v-31.7c0-.5,0-.9,0-1.4"></path><path class="e" d="M87.9,134.4c-1.3,23.1-20.4,41.5-43.9,41.5S0,156.2,0,131.9s18.4-42.6,41.5-43.9c.5,0,.9,0,1.4,0h31.7c7.4,0,13.4,6,13.4,13.4v31.7c0,.5,0,.9,0,1.4"></path><path class="d" d="M88,134.4c1.3,23.1,20.4,41.5,43.9,41.5s44-19.7,44-44-18.4-42.6-41.5-43.9c-.5,0-.9,0-1.4,0h-31.6c-7.4,0-13.4,6-13.4,13.4v31.7c0,.5,0,.9,0,1.4"></path><path class="l" d="M87.9,41.5C86.6,18.4,67.4,0,44,0s-.2,0-.3,0V87.9h30.9c7.4,0,13.4-6,13.4-13.4v-31.7c0-.5,0-.9,0-1.4"></path><path class="l" d="M132.2,0V87.9h.8c.5,0,.9,0,1.4,0,23.1-1.3,41.5-20.4,41.5-43.9S156.3,.2,132.2,0"></path><path class="l" d="M74.5,87.9h-30.9v87.9c.1,0,.2,0,.3,0,23.4,0,42.6-18.4,43.9-41.5,0-.5,0-.9,0-1.4v-31.7c0-7.4-6-13.4-13.4-13.4"></path><path class="g" d="M134.4,88c-.5,0-.9,0-1.4,0h-.8v87.9c24.1-.2,43.7-19.8,43.7-44s-18.4-42.6-41.5-43.9"></path><path class="j" d="M175.9,131.7c0-23.4-18.4-42.4-41.5-43.7-.5,0-.9,0-1.4,0h-.8v43.8h43.7Z"></path><path class="k" d="M87.9,131.7v-30.4c0-7.4-6-13.4-13.4-13.4h-30.9v43.8h44.3Z"></path><path class="k" d="M87.9,44v-1.1c0-.5,0-.9,0-1.4C86.6,18.4,67.4,0,44,0s-.2,0-.3,0V44h44.3Z"></path><path class="k" d="M175.9,44C175.9,19.8,156.3,.2,132.2,0V44h43.7Z"></path><path class="l" d="M274.8,70.3c-5.4,2.5-11.5,4.1-16.9,4.1-19.2,0-36.6-15.8-36.6-38S234.5,3.2,251.8,.5c13.2-1.8,24.6,1.5,33.5,10.8,3.4,3.8-2.7,8.4-5.8,5.1-7.7-8.1-16.5-9.3-26.4-8.2-13.8,2.1-23.6,11.9-23.6,28.3s13.2,30.2,28.7,30.2,8.8-1.1,13.1-3.3c3.5-1.8,6.9-4.5,9.2-7.5,2.6-3.8,9.5,.3,6.5,4.5-3,4.3-7.3,7.7-12.2,10"></path><path class="l" d="M306.8,65.6h44.5c4.7,0,5.4,7.4,0,7.4h-47.4c-3.2,0-5.2-2.3-5.2-5V6.3c0-2.6,2-4.8,5.2-4.8h47.5c4.8,0,4.6,7.2-.1,7.2h-44.5v25.3h42.3c4.5,0,4.7,7.2,0,7.2h-42.3v24.4Z"></path><path class="l" d="M419.4,4.2c0-4.7,8.6-5,8.6,0V68.8c0,5.6-7.8,6.2-10.1,2.3l-42.1-56.4,.9,15.5v39.7c0,5.5-8.6,5.6-8.6,0V5.4c0-5.6,6.3-6.5,9.1-2.4l43.3,58-1.1-17V4.2Z"></path><path class="l" d="M498.9,1.4c5.5,0,5.5,7.8,0,7.8h-25.1c0,20.3,.1,40.9,.1,61.1s-2.4,4.2-4.3,4.2-4.1-1.3-4.1-4.2V9.1h-25c-5.3,0-5.3-7.8,0-7.8h58.3Z"></path><path class="l" d="M521,40.9h22.7c14.7,0,21.2-6.9,20.9-15.3-.1-9.2-7.9-16.7-20.9-16.7h-22.7v32Zm0,7.1v21.8c0,5.2-8.2,5.2-8.2,.1V5.3c0-2.4,1.7-3.9,4.2-3.9h26.7c19.5,0,29.4,11,29.4,24.2s-6.2,19.6-20,21.9l18.2,19.7c4.3,4.3-1.9,9.2-5.6,5.4l-22.7-24.6h-21.8Z"></path><path class="l" d="M591.3,36.4c0,18.5,12.2,30.2,28,30.2s27.7-11.3,27.7-30.2-9.6-26.1-23.4-28.4c-3.4-.4-6.6-.4-9.8,0-13.6,2.1-22.5,13.1-22.5,28.4m-8.4-.3c0-17.7,11.9-32.7,29.8-35.6,4.2-.6,8-.4,11.9,0,17.3,2.7,30.7,17.1,30.7,35.6s-16.9,38.3-36,38.3-36.5-14.4-36.5-38.3"></path><path class="l" d="M288.4,98.2c2.8-4.3,8.3-2.9,8.3,2.2v69.2c0,5.8-8.8,5.8-8.8,0v-54.6l-24.5,38.3c-1.9,3.5-6.5,3.5-8.3,0l-24.5-38.2v54.5c0,5.8-8.8,5.8-8.8,0V100.4c0-5.2,5.8-6.5,8.2-2.2l29.3,45.6,29.1-45.6Z"></path><path class="l" d="M326.6,164.9h47.4c5,0,5.8,7.9,0,7.9h-50.6c-3.4,0-5.5-2.4-5.5-5.3V101.6c0-2.8,2.2-5.2,5.5-5.2h50.7c5.2,0,4.9,7.7-.1,7.7h-47.4v27h45.2c4.8,0,5,7.7,0,7.7h-45.2v26.1Z"></path><path class="l" d="M401.4,165h23.1c18,0,27-15.3,27-30.4s-9-30.5-27-30.5h-23.1v60.9Zm-3.1,7.8c-3,0-5.5-2.4-5.5-5.2V101.4c0-2.8,2.5-5,5.5-5h26.2c23.9,0,35.8,19.1,35.8,38.2s-11.9,38.2-35.8,38.2h-26.2Z"></path><path class="l" d="M475.3,98c0-6,9-5.9,9,0v71.8c0,5.5-9,5.8-9,0V98Z"></path><path class="l" d="M555.2,169.8c-5.8,2.6-12.3,4.3-18,4.3-20.5,0-39-16.8-39-40.6s14.1-35.3,32.5-38.2c14.1-1.9,26.3,1.6,35.8,11.5,3.6,4.1-2.9,9-6.2,5.4-8.2-8.6-17.7-10-28.2-8.8-14.8,2.3-25.2,12.7-25.2,30.1s14.1,32.2,30.6,32.2,9.4-1.2,13.9-3.5c3.7-1.9,7.3-4.8,9.8-8,2.8-4.1,10.1,.4,7,4.8-3.2,4.6-7.8,8.2-13,10.7"></path><path class="l" d="M587,133.6c0,19.7,13,32.2,29.9,32.2s29.5-12,29.5-32.2-10.2-27.9-25-30.3c-3.6-.5-7.1-.5-10.5,0-14.5,2.3-24,13.9-24,30.3m-9-.4c0-18.9,12.7-35,31.8-38,4.4-.6,8.5-.5,12.7,0,18.5,2.9,32.8,18.3,32.8,38s-18,40.8-38.4,40.8-38.9-15.4-38.9-40.8"></path><path class="l" d="M225.2,228.5c1.7,5.5,9.1,6.7,14.4,6.7s14.4-1.7,14.4-8.4-6.9-6.2-14.2-6.8c-9.1-.7-18.9-1.6-18.9-11.5s10.1-12.6,18.1-12.6,15.6,1.7,18.4,9.2c1,2.6-3.5,3.8-4.5,1.6-2-5-9.1-5.9-13.8-5.9s-13,1.8-13,7.8,6.6,6.4,14.3,7c9.1,.8,18.8,1.3,18.8,11.2s-11.3,13.2-19.5,13.2-17.1-2.3-19.3-10.3c-.8-2.9,4.4-3.9,4.9-1.2"></path><path class="l" d="M289.6,202.9l-10.5,20.9h20.9l-10.4-20.9Zm-12.5,25l-5.4,10.5c-1.2,2.5-5.6,.7-4.4-1.9l20-39.4c.4-.9,1.3-1.3,2.2-1.3s1.7,.4,2.1,1.3l19.9,39.2c1.7,2.8-3.2,4.5-4.4,1.9l-5.2-10.3h-24.9Z"></path><path class="l" d="M354,198.5c0-2.8,5-2.9,5,0v38c0,3.3-4.6,3.6-6,1.3l-24.8-33.2,.5,9.1v23.4c0,3.2-5,3.3-5,0v-37.9c0-3.3,3.7-3.8,5.4-1.4l25.5,34.1-.7-10v-23.4Z"></path><path class="l" d="M404.2,222.3h11.9c8.8,0,12.5-5.2,12.3-10.2,0-5.4-4.4-10.9-12.1-10.9h-12.1v21.1Zm0,4.3v10.7c0,3-4.8,3-4.8,0v-38.1c0-1.4,1.1-2.3,2.5-2.3h14.4c11.5,0,16.8,7.6,16.8,15.2s-5.4,14.5-17,14.5h-11.9Z"></path><path class="l" d="M447,197.8c0-3.3,5-3.2,5,0v39.6c0,3-5,3.2-5,0v-39.6Z"></path><path class="l" d="M472.5,234.6h26.2c2.8,0,3.2,4.4,0,4.4h-27.9c-1.9,0-3-1.3-3-2.9v-36.4c0-1.5,1.2-2.8,3-2.8h27.9c2.8,0,2.7,4.2,0,4.2h-26.2v14.9h24.9c2.6,0,2.8,4.2,0,4.2h-24.9v14.4Z"></path><path class="l" d="M549.4,196.8c3.2,0,3.2,4.6,0,4.6h-14.8c0,11.9,0,24,0,36s-1.4,2.5-2.5,2.5-2.4-.8-2.4-2.5v-36h-14.7c-3.1,0-3.1-4.6,0-4.6h34.3Z"></path><path class="l" d="M569.1,220.1h13.4c8.7,0,12.5-4,12.3-9,0-5.4-4.6-9.8-12.3-9.8h-13.4v18.8Zm0,4.2v12.8c0,3-4.8,3-4.8,0v-38c0-1.4,1-2.3,2.5-2.3h15.7c11.5,0,17.3,6.5,17.3,14.2s-3.6,11.5-11.8,12.9l10.7,11.6c2.5,2.5-1.1,5.4-3.3,3.2l-13.4-14.5h-12.8Z"></path><path class="l" d="M617.6,217.4c0,10.9,7.2,17.7,16.5,17.7s16.3-6.6,16.3-17.7-5.6-15.4-13.8-16.7c-2-.3-3.9-.3-5.8,0-8,1.3-13.2,7.7-13.2,16.7m-5-.2c0-10.4,7-19.3,17.6-20.9,2.5-.3,4.7-.3,7,0,10.2,1.6,18.1,10.1,18.1,20.9s-9.9,22.5-21.2,22.5-21.5-8.5-21.5-22.5"></path><path class="n" d="M136.4,226.9v-1c0-1-.8-1.8-1.8-1.8H41.3c-1,0-1.8,.8-1.8,1.8v1c0,1,.8,1.8,1.8,1.8h93.4c1,0,1.8-.8,1.8-1.8"></path><path class="m" d="M72.1,228h-30.8c-1,0-1.8-.8-1.8-1.8v-1c0-1,.8-1.8,1.8-1.8h30.8v4.6Z"></path><path class="h" d="M134.6,228h-30.8v-4.6h30.8c1,0,1.8,.8,1.8,1.8v1c0,1-.8,1.8-1.8,1.8"></path></g><rect class="c" x="72.1" y="223.4" width="31.7" height="4.6"></rect></svg>