<svg xmlns="http://www.w3.org/2000/svg" xmlns:xlink="http://www.w3.org/1999/xlink" id="Livello_1" x="0px" y="0px" viewBox="0 0 595.3 225" style="enable-background:new 0 0 595.3 225;" xml:space="preserve"><style type="text/css">	.st0{fill:#ffffff;}</style><g>	<path class="st0" d="M166.2,125.8l0-1.7c0,0,0-0.1,0-0.1c0,0,0-0.1,0-0.1l0,0c0-0.1,0-0.1,0-0.2c0-0.6,0-1.1,0-1.7c0,0,0-0.1,0-0.1  c0,0,0-0.1,0-0.1c0-0.2,0-0.4,0-0.6c0-0.4,0-0.8-0.1-1.2c-0.1-0.5-0.1-1.1-0.2-1.6c0-0.1,0-0.2,0-0.4  c-2.3-15.5-13.3-28.2-27.9-32.9c15.9-5.1,27.5-19.7,28.3-37h0v-1.9c0-0.7,0-1.4-0.1-2.1c-1-20.1-16.6-36.3-36.3-38.5  c0,0-0.1,0-0.1,0c-0.6-0.1-1.2-0.1-1.8-0.2c-0.1,0-0.2,0-0.3,0c-0.6,0-1.2,0-1.8-0.1c-0.1,0-0.2,0-0.3,0l-0.1,0c-0.1,0-0.1,0-0.2,0  c0,0-0.1,0-0.1,0l-1.6,0v0v0c-17.4,0.7-32.1,12.3-37.2,28.3C81.2,17.2,65.7,5.3,47.6,5.3l-2.2,0v0.1C23.8,6.6,6.7,24.4,6.7,46.2  c0,18.1,11.9,33.6,28.4,38.9C18.6,90.4,6.7,105.9,6.7,124c0,21.8,17.2,39.7,38.7,40.8l0,0.1l2.1,0c0,0,0,0,0,0  c4.7,0,9.3-0.8,13.5-2.3c12-4.2,21.5-13.9,25.4-26.1c5.1,16,19.8,27.6,37.2,28.3v0l1.6,0c0,0,0.1,0,0.1,0c0.1,0,0.1,0,0.2,0l0.1,0  c0.1,0,0.2,0,0.3,0c0.6,0,1.2,0,1.8-0.1c0.1,0,0.2,0,0.2,0c0.6,0,1.2-0.1,1.8-0.2c0,0,0,0,0,0c19.8-2.2,35.3-18.4,36.3-38.5  C166.2,126,166.2,125.9,166.2,125.8L166.2,125.8z M162.2,126.7c0,0.3,0,0.7-0.1,1c0,0.4-0.1,0.7-0.1,1.1c0,0.2-0.1,0.4-0.1,0.7  c-0.1,0.4-0.1,0.9-0.2,1.3c0,0.1-0.1,0.3-0.1,0.4c-0.1,0.5-0.2,1-0.3,1.5c0,0.1,0,0.2-0.1,0.3c-0.1,0.5-0.3,1.1-0.4,1.6  c0,0,0,0.1,0,0.1c-4.4,14.5-17.4,25.2-33,26.3c-0.1,0-0.2,0-0.2,0v-35.1h34.7c0,0,0,0,0,0.1C162.3,126.1,162.2,126.4,162.2,126.7z   M84.3,127.9c0,0.3-0.1,0.6-0.1,0.9c0,0.3-0.1,0.6-0.1,0.8c0,0.3-0.1,0.6-0.2,0.9c-0.1,0.3-0.1,0.6-0.2,0.9  c-0.1,0.3-0.1,0.5-0.2,0.8c-0.1,0.3-0.1,0.6-0.2,0.9c-0.1,0.3-0.1,0.5-0.2,0.8c-0.1,0.3-0.2,0.6-0.2,0.9c-0.1,0.3-0.2,0.5-0.3,0.8  c-0.1,0.3-0.2,0.6-0.3,0.9c-0.1,0.3-0.2,0.5-0.3,0.8c-0.1,0.3-0.2,0.6-0.3,0.8c-0.1,0.3-0.2,0.5-0.3,0.8c-0.1,0.3-0.2,0.5-0.3,0.8  c-0.1,0.3-0.3,0.5-0.4,0.8c-0.1,0.2-0.2,0.5-0.4,0.7c-0.1,0.3-0.3,0.5-0.4,0.8c-0.1,0.2-0.3,0.5-0.4,0.7c-0.2,0.3-0.3,0.5-0.5,0.8  c-0.1,0.2-0.3,0.4-0.4,0.6c-0.2,0.3-0.4,0.6-0.6,0.8c-0.1,0.2-0.3,0.4-0.4,0.6c-0.2,0.3-0.4,0.6-0.6,0.8c-0.1,0.2-0.2,0.3-0.4,0.5  c-0.2,0.3-0.5,0.6-0.7,0.9c-0.1,0.1-0.2,0.3-0.3,0.4c-0.3,0.3-0.5,0.6-0.8,0.9c-0.1,0.1-0.2,0.2-0.3,0.3c-0.3,0.3-0.6,0.6-0.9,0.9  c-0.1,0.1-0.2,0.2-0.3,0.3c-0.3,0.3-0.6,0.6-1,0.9c-0.1,0.1-0.1,0.1-0.2,0.2c-0.4,0.3-0.7,0.6-1.1,0.9c0,0-0.1,0.1-0.1,0.1  c-0.4,0.3-0.8,0.6-1.2,0.9c0,0,0,0-0.1,0c-5.8,4.3-12.8,7-20.5,7.3v-35.1h35.2c0,0.1,0,0.1,0,0.2c0,0,0,0.1,0,0.1  c0,0.4-0.1,0.8-0.1,1.2C84.3,127.5,84.3,127.7,84.3,127.9z M49.2,9.3C49.3,9.3,49.3,9.3,49.2,9.3c0.3,0,0.5,0,0.8,0  c0.4,0,0.7,0,1.1,0.1c0.2,0,0.5,0.1,0.7,0.1c0.4,0,0.7,0.1,1.1,0.1c0.2,0,0.5,0.1,0.7,0.1c0.3,0.1,0.7,0.1,1,0.2  c0.2,0,0.5,0.1,0.7,0.2c0.3,0.1,0.7,0.1,1,0.2c0.2,0.1,0.5,0.1,0.7,0.2c0.3,0.1,0.6,0.2,1,0.3c0.2,0.1,0.5,0.1,0.7,0.2  c0.3,0.1,0.6,0.2,0.9,0.3c0.2,0.1,0.5,0.2,0.7,0.3c0.3,0.1,0.6,0.2,0.9,0.3c0.2,0.1,0.5,0.2,0.7,0.3c0.3,0.1,0.6,0.2,0.9,0.4  c0.1,0.1,0.3,0.1,0.4,0.2c0.1,0,0.2,0.1,0.3,0.1c0.3,0.1,0.6,0.3,0.8,0.4c0.2,0.1,0.5,0.3,0.7,0.4c0.2,0.1,0.5,0.3,0.7,0.4  c0.3,0.1,0.5,0.3,0.8,0.5c0.2,0.1,0.4,0.3,0.7,0.4c0.3,0.2,0.5,0.3,0.8,0.5c0.2,0.1,0.4,0.3,0.6,0.4c0.3,0.2,0.6,0.4,0.8,0.6  c0.2,0.1,0.3,0.2,0.5,0.4c0.3,0.2,0.6,0.5,0.9,0.7c0.1,0.1,0.3,0.2,0.4,0.3c0.3,0.3,0.6,0.5,0.9,0.8c0.1,0.1,0.2,0.2,0.3,0.3  c0.3,0.3,0.6,0.6,0.9,0.9c0.1,0.1,0.2,0.2,0.2,0.2c0.3,0.3,0.7,0.7,1,1c0.1,0.1,0.1,0.1,0.2,0.2c0.3,0.4,0.7,0.7,1,1.1  c0,0,0.1,0.1,0.1,0.1c0.3,0.4,0.7,0.8,1,1.2c0,0,0,0,0,0c4.1,5.3,6.8,11.7,7.5,18.7c0.1,0.6,0.1,1.1,0.1,1.7l0,0.1c0,0,0,0,0,0.1  H49.2V9.3z M84.5,48.1v25.1c0,5.5-4.5,9.9-9.9,9.9H49.2v-35H84.5z M49.2,87h25.4c1.6,0,3.2,0.4,4.5,1.1c3.2,1.6,5.4,5,5.4,8.8v24.9  H49.2V87z M86.3,89.7c-0.1-0.1-0.2-0.3-0.3-0.4c-0.1-0.2-0.3-0.4-0.5-0.6c-0.1-0.1-0.2-0.3-0.3-0.4C85.2,88.1,85.1,88,85,88  c-1-1.1-2.1-2.1-3.4-2.9c2-1.2,3.7-2.8,4.8-4.8c1.2,2,2.8,3.7,4.8,4.8c-2,1.2-3.7,2.8-4.8,4.8C86.4,89.8,86.4,89.8,86.3,89.7z   M127.7,9.3c0.5,0,1.1,0.1,1.6,0.1c0,0,0.1,0,0.1,0c0.5,0.1,1.1,0.1,1.6,0.2c0.1,0,0.3,0.1,0.4,0.1c0.4,0.1,0.9,0.2,1.3,0.2  c0.2,0,0.3,0.1,0.5,0.1c0.4,0.1,0.8,0.2,1.2,0.3c0.2,0,0.4,0.1,0.6,0.2c0.4,0.1,0.7,0.2,1.1,0.3c0.2,0.1,0.4,0.1,0.6,0.2  c0.3,0.1,0.7,0.2,1,0.3c0.2,0.1,0.4,0.2,0.6,0.2c0.3,0.1,0.7,0.3,1,0.4c0.2,0.1,0.4,0.2,0.6,0.3c0.3,0.1,0.6,0.3,0.9,0.4  c0.2,0.1,0.4,0.2,0.6,0.3c0.3,0.1,0.6,0.3,0.9,0.5c0.2,0.1,0.4,0.2,0.6,0.3c0.3,0.2,0.6,0.3,0.9,0.5c0.2,0.1,0.4,0.2,0.6,0.4  c0.3,0.2,0.6,0.3,0.8,0.5c0.2,0.1,0.4,0.3,0.6,0.4c0.3,0.2,0.5,0.4,0.8,0.6c0.2,0.1,0.4,0.3,0.6,0.4c0.3,0.2,0.5,0.4,0.8,0.6  c0.2,0.1,0.4,0.3,0.6,0.5c0.2,0.2,0.5,0.4,0.7,0.6c0.2,0.2,0.4,0.3,0.5,0.5c0.2,0.2,0.5,0.4,0.7,0.6c0.2,0.2,0.4,0.3,0.5,0.5  c0.2,0.2,0.5,0.4,0.7,0.7c0.2,0.2,0.3,0.4,0.5,0.5c0.2,0.2,0.4,0.5,0.6,0.7c0.2,0.2,0.3,0.4,0.5,0.6c0.2,0.2,0.4,0.5,0.6,0.7  c0.2,0.2,0.3,0.4,0.5,0.6c0.2,0.3,0.4,0.5,0.6,0.8c0.1,0.2,0.3,0.4,0.4,0.6c0.2,0.3,0.4,0.5,0.5,0.8c0.1,0.2,0.3,0.4,0.4,0.6  c0.2,0.3,0.3,0.5,0.5,0.8c0.1,0.2,0.3,0.4,0.4,0.6c0.2,0.3,0.3,0.6,0.5,0.8c0.1,0.2,0.2,0.4,0.3,0.6c0.1,0.3,0.3,0.6,0.4,0.9  c0.1,0.2,0.2,0.4,0.3,0.6c0.1,0.3,0.3,0.6,0.4,0.9c0.1,0.2,0.2,0.4,0.3,0.7c0.1,0.3,0.2,0.6,0.4,0.9c0.1,0.2,0.2,0.4,0.2,0.7  c0.1,0.3,0.2,0.7,0.3,1c0.1,0.2,0.1,0.4,0.2,0.6c0,0,0,0,0,0c0.1,0.3,0.2,0.7,0.3,1.1c0,0.2,0.1,0.4,0.1,0.5c0,0.1,0,0.2,0.1,0.2  c0.1,0.3,0.2,0.7,0.2,1c0,0.1,0.1,0.3,0.1,0.4c0,0.2,0.1,0.3,0.1,0.5c0.1,0.4,0.2,0.8,0.2,1.2c0,0.3,0.1,0.5,0.1,0.8  c0,0.3,0.1,0.7,0.1,1c0,0.4,0.1,0.8,0.1,1.2c0,0.2,0,0.4,0,0.6h-34.7V9.3C127.6,9.3,127.7,9.3,127.7,9.3z M162.3,48.1  c-0.2,4.2-1.1,8.2-2.6,11.9c0,0,0,0,0,0c-0.2,0.5-0.4,1-0.7,1.5c0,0,0,0,0,0.1c-0.2,0.5-0.5,1-0.7,1.5c0,0,0,0.1,0,0.1  c-0.3,0.5-0.5,1-0.8,1.4c0,0,0,0,0,0.1c-0.3,0.5-0.6,0.9-0.9,1.4c0,0,0,0.1-0.1,0.1c-0.3,0.4-0.6,0.9-0.9,1.3c0,0-0.1,0.1-0.1,0.1  c-0.3,0.4-0.6,0.8-0.9,1.3c0,0-0.1,0.1-0.1,0.1c-0.3,0.4-0.6,0.8-1,1.2c0,0-0.1,0.1-0.1,0.1c-0.3,0.4-0.7,0.8-1,1.1  c0,0-0.1,0.1-0.1,0.1c-0.4,0.4-0.7,0.7-1.1,1.1c0,0-0.1,0.1-0.2,0.1c-0.4,0.3-0.7,0.7-1.1,1c-0.1,0.1-0.1,0.1-0.2,0.2  c-0.4,0.3-0.7,0.6-1.1,0.9c-0.1,0.1-0.1,0.1-0.2,0.2c-0.4,0.3-0.8,0.6-1.2,0.9c-0.1,0.1-0.2,0.1-0.2,0.2c-0.4,0.3-0.8,0.6-1.2,0.8  c-0.1,0.1-0.2,0.1-0.3,0.2c-0.4,0.3-0.8,0.5-1.2,0.8c-0.1,0.1-0.2,0.1-0.3,0.2c-0.4,0.2-0.8,0.5-1.2,0.7c-0.1,0.1-0.2,0.1-0.3,0.2  c-0.4,0.2-0.8,0.4-1.2,0.6c-0.1,0.1-0.3,0.1-0.4,0.2c-0.4,0.2-0.8,0.4-1.2,0.5c-0.1,0.1-0.3,0.1-0.4,0.2c-0.4,0.2-0.8,0.3-1.2,0.5  c-0.2,0.1-0.3,0.1-0.5,0.2c-0.4,0.1-0.8,0.3-1.2,0.4c-0.2,0.1-0.3,0.1-0.5,0.1c-0.4,0.1-0.8,0.2-1.2,0.3c-0.2,0-0.4,0.1-0.6,0.1  c-0.4,0.1-0.8,0.2-1.2,0.3c-0.2,0-0.4,0.1-0.6,0.1c-0.4,0.1-0.8,0.1-1.1,0.2c-0.2,0-0.5,0.1-0.7,0.1c-0.4,0.1-0.7,0.1-1.1,0.1  c-0.2,0-0.5,0-0.7,0.1c-0.3,0-0.6,0.1-1,0.1V48.1H162.3z M127.6,87.1c0.3,0,0.7,0.1,1,0.1c0.3,0,0.5,0,0.8,0.1  c0.4,0,0.7,0.1,1.1,0.1c0.2,0,0.5,0.1,0.7,0.1c0.1,0,0.2,0,0.3,0c0.3,0,0.5,0.1,0.8,0.1c0.2,0,0.4,0.1,0.6,0.1  c0.3,0.1,0.5,0.1,0.8,0.2c0.1,0,0.2,0.1,0.4,0.1c0.2,0,0.4,0.1,0.5,0.1c0.3,0.1,0.6,0.2,1,0.3c0.1,0,0.2,0,0.2,0.1  c0.2,0,0.3,0.1,0.5,0.1c0.4,0.1,0.7,0.2,1.1,0.3c0.1,0,0.1,0,0.2,0.1c0.1,0,0.2,0.1,0.4,0.1c0.4,0.1,0.8,0.3,1.1,0.4  c0.1,0,0.1,0,0.2,0.1c0.1,0,0.2,0.1,0.3,0.1c0.4,0.2,0.8,0.3,1.2,0.5c0,0,0.1,0,0.1,0.1c0.1,0,0.1,0.1,0.2,0.1  c0.4,0.2,0.8,0.4,1.2,0.6c0.1,0,0.1,0.1,0.2,0.1c0,0,0.1,0,0.1,0.1c0.4,0.2,0.8,0.4,1.2,0.7c0.1,0,0.1,0.1,0.2,0.1c0,0,0,0,0,0  c0.4,0.2,0.8,0.5,1.3,0.8c0,0,0.1,0.1,0.1,0.1c0.4,0.3,0.8,0.6,1.3,0.8c0,0,0.1,0,0.1,0.1c0.4,0.3,0.8,0.6,1.3,0.9c0,0,0,0,0.1,0.1  c0.4,0.3,0.8,0.7,1.2,1c0,0,0,0,0,0c0.4,0.3,0.8,0.7,1.2,1.1c0,0,0,0,0,0c6.4,5.9,10.7,14.1,11.7,23.2c0,0.1,0,0.2,0,0.2  c0,0.4,0.1,0.9,0.1,1.3c0,0.1,0,0.1,0,0.2c0,0.1,0,0.1,0,0.2h-34.7V87.1z M88.5,44.1c1.1-19,16.4-34,35.2-34.8v38.9v35H98.3  c-5.5,0-9.9-4.5-9.9-9.9V48.1v-2.9C88.4,44.9,88.4,44.5,88.5,44.1L88.5,44.1z M10.6,46.2c0-19.6,15.4-35.7,34.7-36.9v73.8  C25.8,81.9,10.6,65.7,10.6,46.2z M10.6,124c0-19.5,15.2-35.7,34.7-36.9v38.7h0v35.1C26,159.7,10.6,143.6,10.6,124z M88.5,126.1  L88.5,126.1c0-0.4-0.1-0.8-0.1-1.1c0,0,0,0,0,0V97c0,0,0,0,0,0c0-5.5,4.5-9.9,9.9-9.9h25.3v38.8h0v35.1  C104.8,160.1,89.5,145.1,88.5,126.1z"></path>	<path class="st0" d="M236.9,73c4.8,0,10.2-1.4,14.9-3.6c4.3-2.1,8.1-5.1,10.8-8.9c2.6-3.7-3.5-7.4-5.8-4c-2.1,2.7-5.1,5.1-8.2,6.7  c-3.8,1.9-7.9,2.9-11.6,2.9c-13.7,0-25.4-11.6-25.4-26.7c0-14.4,8.7-23.1,20.9-25c8.8-1,16.6,0.1,23.4,7.3c2.8,3,8.2-1.1,5.2-4.5  c-7.9-8.3-18-11.2-29.7-9.6c-15.3,2.4-27,15.3-27,31.7C204.5,59.1,219.9,73,236.9,73z"></path>	<path class="st0" d="M277.5,71.9h41.9c4.8,0,4.2-6.6,0-6.6h-39.3V43.8h37.4c4.2,0,4-6.4,0-6.4h-37.4V15h39.3c4.2,0,4.4-6.4,0.1-6.4  h-42c-2.8,0-4.6,2-4.6,4.3v54.7C272.9,70,274.7,71.9,277.5,71.9z"></path>	<path class="st0" d="M342,69.2V34l-0.8-13.7l37.2,49.9c2.1,3.5,9,3,9-2V11c0-4.4-7.6-4.2-7.6,0v35.3l1,15L342.5,10  c-2.5-3.7-8.1-2.9-8.1,2.1v57.1C334.4,74.1,342,74,342,69.2z"></path>	<path class="st0" d="M428,69.5c0-17.9-0.1-36.1-0.1-54.1h22.2c4.9,0,4.9-6.9,0-6.9h-51.6c-4.7,0-4.7,6.9,0,6.9h22.1v54.1  c0,2.5,1.9,3.7,3.6,3.7C425.9,73.1,428,71.9,428,69.5z"></path>	<path class="st0" d="M469.7,69.1V49.7H489l20.1,21.8c3.3,3.4,8.8-1,5-4.8L498,49.3c12.2-2.1,17.7-9.4,17.7-19.4  c0-11.7-8.8-21.4-26-21.4h-23.6c-2.2,0-3.7,1.4-3.7,3.5v57.2C462.4,73.6,469.7,73.6,469.7,69.1z M469.7,15.2h20.1  c11.6,0,18.4,6.6,18.5,14.7c0.2,7.5-5.5,13.5-18.5,13.5h-20.1V15.2z"></path>	<path class="st0" d="M556.7,73c16.9,0,31.9-13.1,31.9-33.9c0-16.3-11.8-29.1-27.2-31.5c-3.5-0.4-6.9-0.5-10.6,0  c-15.8,2.5-26.4,15.8-26.4,31.5C524.4,60.3,538.8,73,556.7,73z M551.8,14.4c2.8-0.4,5.7-0.4,8.7,0c12.3,2,20.7,12.2,20.7,25.1  c0,16.7-11.1,26.7-24.5,26.7c-14,0-24.8-10.4-24.8-26.7C531.9,25.9,539.8,16.3,551.8,14.4z"></path>	<path class="st0" d="M263.4,157.3c0,5.1,7.8,5.1,7.8,0V96.1c0-4.5-4.9-5.7-7.3-1.9l-25.7,40.4l-25.9-40.4c-2.1-3.8-7.2-2.7-7.2,1.9  v61.2c0,5.1,7.8,5.1,7.8,0v-48.3l21.7,33.8c1.6,3.1,5.6,3.1,7.3,0l21.7-33.9V157.3z"></path>	<path class="st0" d="M339.6,153.2h-42v-23.1h40c4.5,0,4.2-6.8,0-6.8h-40V99.4h42c4.5,0,4.7-6.8,0.1-6.8h-44.9c-3,0-4.9,2.1-4.9,4.6  v58.3c0,2.5,1.9,4.7,4.9,4.7h44.7C344.7,160.2,344.1,153.2,339.6,153.2z"></path>	<path class="st0" d="M384.3,92.6h-23.2c-2.7,0-4.9,2-4.9,4.5v58.6c0,2.4,2.2,4.6,4.9,4.6h23.2c21.1,0,31.7-16.9,31.7-33.8  C416,109.5,405.4,92.6,384.3,92.6z M384.3,153.3h-20.4V99.4h20.4c15.9,0,23.9,13.6,23.9,27S400.2,153.3,384.3,153.3z"></path>	<path class="st0" d="M429.2,94v63.6c0,5.1,8,4.9,8,0V94C437.2,88.8,429.2,88.7,429.2,94z"></path>	<path class="st0" d="M511.4,148.1c2.8-3.9-3.7-7.9-6.2-4.3c-2.2,2.9-5.4,5.4-8.7,7.1c-4,2-8.4,3.1-12.3,3.1  c-14.7,0-27.1-12.3-27.1-28.5c0-15.4,9.2-24.7,22.3-26.7c9.4-1.1,17.8,0.1,25,7.8c3,3.2,8.7-1.2,5.5-4.8  c-8.4-8.8-19.2-11.9-31.7-10.2c-16.4,2.5-28.8,16.4-28.8,33.8c0,21,16.4,35.9,34.5,35.9c5.1,0,10.8-1.5,15.9-3.8  C504.5,155.3,508.5,152.1,511.4,148.1z"></path>	<path class="st0" d="M554.6,161.4c18.1,0,34-14,34-36.1c0-17.4-12.7-31-29-33.6c-3.7-0.4-7.3-0.5-11.3,0  c-16.9,2.7-28.2,16.9-28.2,33.6C520.1,147.7,535.4,161.4,554.6,161.4z M549.3,98.8c3-0.4,6.1-0.4,9.2,0  c13.1,2.1,22.1,13.1,22.1,26.8c0,17.9-11.8,28.5-26.1,28.5c-15,0-26.5-11.1-26.5-28.5C528.1,111.1,536.5,100.8,549.3,98.8z"></path>	<path class="st0" d="M221.2,198c-6.8-0.5-12.7-1.1-12.7-6.2c0-5.3,7.6-6.9,11.5-6.9c4.2,0,10.5,0.8,12.2,5.2c0.9,2,4.9,0.9,4-1.4  c-2.5-6.7-10.1-8.1-16.3-8.1c-7.1,0-16.1,3.5-16.1,11.2c0,8.7,8.7,9.5,16.8,10.1c6.4,0.5,12.6,0.9,12.6,6c0,5.9-7.7,7.4-12.7,7.4  c-4.7,0-11.2-1.1-12.7-5.9c-0.5-2.4-5-1.5-4.3,1.1c1.9,7,11.1,9.1,17.1,9.1c7.2,0,17.2-2.8,17.2-11.7  C237.8,199.2,229.2,198.7,221.2,198z"></path>	<path class="st0" d="M266.8,181.6c-0.4-0.8-1.1-1.1-1.9-1.1c-0.8,0-1.6,0.4-1.9,1.1l-17.7,34.9c-1.1,2.3,2.8,3.9,3.9,1.7l4.7-9.3  h22l4.6,9.1c1.1,2.3,5.4,0.8,3.9-1.7L266.8,181.6z M255.7,205.2l9.3-18.5l9.2,18.5H255.7z"></path>	<path class="st0" d="M321.9,182.9v20.7l0.6,8.8L300,182.3c-1.5-2.2-4.7-1.7-4.7,1.2v33.6c0,2.9,4.5,2.9,4.5,0v-20.7l-0.5-8.1  l21.9,29.4c1.2,2.1,5.3,1.8,5.3-1.2v-33.6C326.4,180.3,321.9,180.5,321.9,182.9z"></path>	<path class="st0" d="M377,181.5h-12.7c-1.2,0-2.2,0.8-2.2,2.1v33.8c0,2.6,4.2,2.6,4.2-0.1v-9.4h10.5c10.3,0,15.1-5.8,15.1-12.8  C391.8,188.2,387.1,181.5,377,181.5z M376.8,204h-10.5v-18.7H377c6.8,0,10.6,4.9,10.7,9.7C387.8,199.4,384.6,204,376.8,204z"></path>	<path class="st0" d="M404.2,182.3v35c0,2.8,4.4,2.7,4.4,0v-35C408.6,179.4,404.2,179.3,404.2,182.3z"></path>	<path class="st0" d="M449.9,214.9h-23.1v-12.7h22c2.5,0,2.3-3.8,0-3.8h-22v-13.2h23.1c2.5,0,2.6-3.8,0.1-3.8h-24.7  c-1.6,0-2.7,1.2-2.7,2.5v32.2c0,1.4,1.1,2.6,2.7,2.6h24.7C452.7,218.8,452.4,214.9,449.9,214.9z"></path>	<path class="st0" d="M494.8,181.5h-30.4c-2.8,0-2.8,4,0,4h13v31.8c0,1.5,1.1,2.2,2.1,2.2c1,0,2.2-0.7,2.2-2.2  c0-10.5-0.1-21.3-0.1-31.8h13.1C497.7,185.5,497.7,181.5,494.8,181.5z"></path>	<path class="st0" d="M539.4,194.1c0-6.9-5.2-12.6-15.3-12.6h-13.9c-1.3,0-2.2,0.8-2.2,2v33.6c0,2.6,4.3,2.6,4.3-0.1v-11.4h11.4  l11.8,12.8c1.9,2,5.2-0.6,2.9-2.8l-9.5-10.3C536.1,204.3,539.4,200,539.4,194.1z M524.1,202h-11.8v-16.6h11.8  c6.8,0,10.8,3.9,10.9,8.7C535.1,198.4,531.8,202,524.1,202z"></path>	<path class="st0" d="M572.6,181c-2.1-0.2-4-0.3-6.2,0c-9.3,1.5-15.5,9.3-15.5,18.5c0,12.4,8.4,19.9,19,19.9  c10,0,18.8-7.7,18.8-19.9C588.6,189.9,581.6,182.4,572.6,181z M569.8,215.4c-8.3,0-14.6-6.1-14.6-15.7c0-8,4.6-13.7,11.7-14.8  c1.6-0.2,3.3-0.2,5.1,0c7.2,1.2,12.2,7.2,12.2,14.8C584.2,209.5,577.7,215.4,569.8,215.4z"></path></g></svg>