<svg xmlns="http://www.w3.org/2000/svg" xmlns:xlink="http://www.w3.org/1999/xlink" id="Livello_1" x="0px" y="0px" width="500px" height="160.8px" viewBox="0 0 500 160.8" style="enable-background:new 0 0 500 160.8;" xml:space="preserve"><style type="text/css">	.st0{fill:#C7C6C6;}	.st1{fill:#229A7D;}	.st2{fill:#F6A120;}	.st3{fill:#1E5D55;}	.st4{fill:#E84629;}	.st5{fill:#FBC27D;}	.st6{fill:#86B8A4;}	.st7{fill:#52AF34;}	.st8{fill:#E84628;}	.st9{fill:#F6A122;}</style><g>	<path class="st0" d="M91.8,150.7H72v2.5H51.5v-2.5H31.7c-0.6,0-1.2,0.5-1.2,1.2v0.6c0,0.6,0.5,1.2,1.2,1.2h19.8H72h19.8  c0.6,0,1.2-0.5,1.2-1.2v-0.6C93,151.2,92.4,150.7,91.8,150.7z"></path>	<g>		<path class="st1" d="M61.7,33.1C60.9,18.2,48.5,6.4,33.4,6.4C17.8,6.4,5.1,19.1,5.1,34.7C5.1,49.8,17,62.1,31.8,63   c0.3,0,0.6,0,0.9,0h20.4c4.8,0,8.6-3.9,8.6-8.6V34C61.7,33.7,61.7,33.4,61.7,33.1"></path>		<path class="st1" d="M61.8,33.1C62.6,18.2,75,6.4,90.1,6.4c15.6,0,28.3,12.7,28.3,28.3c0,15.1-11.8,27.4-26.7,28.3   c-0.3,0-0.6,0-0.9,0H70.4c-4.8,0-8.6-3.9-8.6-8.6V34C61.7,33.7,61.8,33.4,61.8,33.1"></path>		<path class="st1" d="M61.7,92.9c-0.8,14.9-13.2,26.7-28.3,26.7c-15.6,0-28.3-12.7-28.3-28.3c0-15.1,11.8-27.4,26.7-28.3   c0.3,0,0.6,0,0.9,0h20.4c4.8,0,8.6,3.9,8.6,8.6V92C61.7,92.3,61.7,92.6,61.7,92.9"></path>		<path class="st2" d="M61.8,92.9c0.8,14.9,13.2,26.7,28.3,26.7c15.6,0,28.3-12.7,28.3-28.3c0-15.1-11.8-27.4-26.7-28.3   c-0.3,0-0.6,0-0.9,0H70.4c-4.8,0-8.6,3.9-8.6,8.6V92C61.7,92.3,61.8,92.6,61.8,92.9"></path>		<path class="st3" d="M61.7,33.1C60.9,18.2,48.5,6.4,33.4,6.4c-0.1,0-0.1,0-0.2,0V63h19.9c4.8,0,8.6-3.9,8.6-8.6V34   C61.7,33.7,61.7,33.4,61.7,33.1"></path>		<path class="st3" d="M90.2,6.4V63h0.5c0.3,0,0.6,0,0.9,0c14.9-0.8,26.7-13.2,26.7-28.3C118.4,19.2,105.8,6.5,90.2,6.4"></path>		<path class="st3" d="M53.1,63H33.2v56.6c0.1,0,0.1,0,0.2,0c15.1,0,27.4-11.8,28.3-26.7c0-0.3,0-0.6,0-0.9V71.7   C61.7,66.9,57.9,63,53.1,63"></path>		<path class="st4" d="M91.7,63.1c-0.3,0-0.6,0-0.9,0h-0.5v56.6c15.5-0.1,28.1-12.7,28.1-28.3C118.4,76.2,106.5,63.9,91.7,63.1"></path>		<path class="st5" d="M118.4,91.2c-0.1-15-11.8-27.3-26.7-28.2c-0.3,0-0.6,0-0.9,0h-0.5v28.2H118.4z"></path>		<path class="st6" d="M61.7,91.2V71.7c0-4.8-3.9-8.6-8.6-8.6H33.2v28.2H61.7z"></path>		<path class="st6" d="M61.7,34.7V34c0-0.3,0-0.6,0-0.9C60.9,18.2,48.5,6.4,33.4,6.4c-0.1,0-0.1,0-0.2,0v28.3H61.7z"></path>		<path class="st6" d="M118.4,34.7c0-15.6-12.6-28.2-28.1-28.3v28.3H118.4z"></path>		<path class="st7" d="M51.5,153.2H31.7c-0.6,0-1.2-0.5-1.2-1.2v-0.6c0-0.6,0.5-1.2,1.2-1.2h19.8V153.2z"></path>		<path class="st8" d="M91.8,153.2H72v-3h19.8c0.6,0,1.2,0.5,1.2,1.2v0.6C93,152.7,92.4,153.2,91.8,153.2"></path>	</g>	<g>		<path class="st3" d="M213,91c-6.2,2.8-13.1,4.6-19.2,4.6c-21.9,0-41.7-18-41.7-43.4c0-21,15-37.7,34.8-40.8   c15-2.1,28.1,1.7,38.2,12.3c3.8,4.4-3.1,9.6-6.7,5.8c-8.7-9.2-18.9-10.6-30.1-9.4c-15.8,2.4-26.9,13.6-26.9,32.2   c0,19.5,15,34.4,32.7,34.4c4.7,0,10-1.3,14.9-3.7c4-2.1,7.8-5.1,10.5-8.6c3-4.4,10.8,0.4,7.4,5.1C223.4,84.5,218.5,88.3,213,91z"></path>		<path class="st3" d="M314.4,14.6c3-4.6,8.9-3.1,8.9,2.3v73.9c0,6.2-9.4,6.2-9.4,0V32.4l-26.2,40.9c-2.1,3.7-6.9,3.7-8.9,0   l-26.2-40.8v58.2c0,6.2-9.4,6.2-9.4,0V16.9c0-5.5,6.2-6.9,8.7-2.3l31.3,48.8L314.4,14.6z"></path>		<path class="st3" d="M349.1,74c3.3,10.6,17.6,13,27.8,13c10.9,0,27.8-3.3,27.8-16.3c0-11.2-13.5-12.1-27.6-13.2   c-17.7-1.4-36.7-3.1-36.7-22.2c0-16.9,19.5-24.5,35.2-24.5c13.5,0,30.3,3.2,35.7,17.8c1.9,5.1-6.8,7.4-8.7,3.1   c-3.8-9.8-17.6-11.4-26.8-11.4c-8.6,0-25.3,3.5-25.3,15.1c0,11.2,12.8,12.3,27.7,13.5c17.6,1.5,36.4,2.4,36.4,21.7   c0,19.6-21.9,25.7-37.7,25.7c-13.1,0-33.1-4.5-37.3-19.9C338.1,70.6,348.1,68.7,349.1,74z"></path>		<path class="st3" d="M439.2,70.1v20.7c0,5.9-9.2,5.8-9.2,0.1V17c0-2.7,2.2-4.5,4.7-4.5h27.8c22.2,0,32.6,14.8,32.6,29.5   c0,15.4-10.5,28.1-33,28.1H439.2z M439.2,61.8h23c17.1,0,24.1-10,23.9-19.8c-0.1-10.5-8.5-21.2-23.3-21.2h-23.5V61.8z"></path>	</g>	<g>		<path class="st9" d="M151.3,140c0-6.5,4.4-12.1,11-13.1c1.5-0.2,2.9-0.2,4.4,0c6.4,1,11.3,6.3,11.3,13.1c0,8.6-6.2,14.1-13.3,14.1   C157.3,154.1,151.3,148.8,151.3,140z M154.4,140.2c0,6.8,4.5,11.1,10.3,11.1c5.6,0,10.2-4.2,10.2-11.1c0-5.4-3.5-9.6-8.6-10.5   c-1.2-0.2-2.4-0.2-3.6,0C157.7,130.5,154.4,134.5,154.4,140.2z"></path>		<path class="st9" d="M184.4,153.7c-1,0-1.9-0.8-1.9-1.8V129c0-1,0.9-1.7,1.9-1.7h9.1c8.3,0,12.4,6.6,12.4,13.2   c0,6.6-4.1,13.2-12.4,13.2H184.4z M185.5,151h8c6.2,0,9.3-5.3,9.3-10.5c0-5.2-3.1-10.5-9.3-10.5h-8V151z"></path>		<path class="st9" d="M209.9,140c0-6.5,4.4-12.1,11-13.1c1.5-0.2,2.9-0.2,4.4,0c6.4,1,11.3,6.3,11.3,13.1c0,8.6-6.2,14.1-13.3,14.1   C215.9,154.1,209.9,148.8,209.9,140z M213,140.2c0,6.8,4.5,11.1,10.3,11.1c5.6,0,10.2-4.2,10.2-11.1c0-5.4-3.5-9.6-8.6-10.5   c-1.2-0.2-2.4-0.2-3.6,0C216.3,130.5,213,134.5,213,140.2z"></path>		<path class="st9" d="M261.4,128.3c0-1.7,3.2-1.8,3.2,0v23.8c0,2.1-2.9,2.3-3.7,0.8l-15.5-20.8l0.3,5.7v14.7c0,2-3.2,2.1-3.2,0   v-23.8c0-2.1,2.3-2.4,3.4-0.9l16,21.4l-0.4-6.3V128.3z"></path>		<path class="st9" d="M290.9,127.2c2,0,2,2.9,0,2.9h-9.3c0,7.5,0,15.1,0,22.5c0,1-0.9,1.5-1.6,1.5s-1.5-0.5-1.5-1.5v-22.5h-9.2   c-2,0-2-2.9,0-2.9H290.9z"></path>		<path class="st9" d="M293.3,140c0-6.5,4.4-12.1,11-13.1c1.5-0.2,2.9-0.2,4.4,0c6.4,1,11.3,6.3,11.3,13.1c0,8.6-6.2,14.1-13.3,14.1   C299.3,154.1,293.3,148.8,293.3,140z M296.4,140.2c0,6.8,4.5,11.1,10.3,11.1c5.6,0,10.2-4.2,10.2-11.1c0-5.4-3.5-9.6-8.6-10.5   c-1.2-0.2-2.4-0.2-3.6,0C299.7,130.5,296.4,134.5,296.4,140.2z"></path>		<path class="st9" d="M343.7,127.2c2,0,2,2.9,0,2.9h-9.3c0,7.5,0,15.1,0,22.5c0,1-0.9,1.5-1.6,1.5s-1.5-0.5-1.5-1.5v-22.5h-9.2   c-2,0-2-2.9,0-2.9H343.7z"></path>		<path class="st9" d="M352,150.9h16.4c1.7,0,2,2.7,0,2.7h-17.5c-1.2,0-1.9-0.8-1.9-1.8v-22.8c0-1,0.7-1.8,1.9-1.8h17.5   c1.8,0,1.7,2.7,0,2.7H352v9.3h15.6c1.7,0,1.7,2.7,0,2.7H352V150.9z"></path>		<path class="st9" d="M393.9,152.6c-2,0.9-4.2,1.5-6.2,1.5c-7.1,0-13.5-5.8-13.5-14c0-6.8,4.9-12.2,11.3-13.2   c4.9-0.7,9.1,0.5,12.4,4c1.2,1.4-1,3.1-2.2,1.9c-2.8-3-6.1-3.4-9.8-3c-5.1,0.8-8.7,4.4-8.7,10.4c0,6.3,4.9,11.1,10.6,11.1   c1.5,0,3.2-0.4,4.8-1.2c1.3-0.7,2.5-1.7,3.4-2.8c1-1.4,3.5,0.1,2.4,1.7C397.3,150.5,395.7,151.8,393.9,152.6z"></path>		<path class="st9" d="M422.3,128.3c0-1.7,3.2-1.8,3.2,0v23.8c0,2.1-2.9,2.3-3.7,0.8l-15.5-20.8l0.3,5.7v14.7c0,2-3.2,2.1-3.2,0   v-23.8c0-2.1,2.3-2.4,3.4-0.9l16,21.4l-0.4-6.3V128.3z"></path>		<path class="st9" d="M432.2,127.8c0-2.1,3.1-2,3.1,0v24.8c0,1.9-3.1,2-3.1,0V127.8z"></path>		<path class="st9" d="M460,152.6c-2,0.9-4.2,1.5-6.2,1.5c-7.1,0-13.5-5.8-13.5-14c0-6.8,4.9-12.2,11.3-13.2c4.9-0.7,9.1,0.5,12.4,4   c1.2,1.4-1,3.1-2.2,1.9c-2.8-3-6.1-3.4-9.8-3c-5.1,0.8-8.7,4.4-8.7,10.4c0,6.3,4.9,11.1,10.6,11.1c1.5,0,3.2-0.4,4.8-1.2   c1.3-0.7,2.5-1.7,3.4-2.8c1-1.4,3.5,0.1,2.4,1.7C463.3,150.5,461.8,151.8,460,152.6z"></path>		<path class="st9" d="M472.7,146.7l-3.4,6.6c-0.7,1.5-3.5,0.5-2.7-1.2l12.5-24.7c0.2-0.5,0.8-0.8,1.4-0.8s1,0.2,1.3,0.8l12.5,24.6   c1.1,1.8-2,2.8-2.8,1.2l-3.2-6.4H472.7z M480.5,131l-6.6,13.1H487L480.5,131z"></path>	</g></g></svg>